{
	"asset":{
		"generator":"Khronos glTF Blender I/O v4.2.70",
		"version":"2.0"
	},
	"extensionsUsed":[
		"KHR_materials_specular"
	],
	"scene":0,
	"scenes":[
		{
			"name":"Scene",
			"nodes":[
				0
			]
		}
	],
	"nodes":[
		{
			"mesh":0,
			"name":"67CamaroNoWheels",
			"rotation":[
				0,
				-0.7071068286895752,
				0,
				0.7071068286895752
			],
			"translation":[
				0.3420291841030121,
				0,
				0
			]
		}
	],
	"materials":[
		{
			"doubleSided":true,
			"extensions":{
				"KHR_materials_specular":{
					"specularColorFactor":[
						2.0,
						2.0,
						2.0
					]
				}
			},
			"name":"CarMaterial",
			"pbrMetallicRoughness":{
				"baseColorFactor":[
					0.800000011920929,
					0.800000011920929,
					0.800000011920929,
					1
				],
				"roughnessFactor":0.5527864098548889
			}
		}
	],
	"meshes":[
		{
			"name":"Plane.006",
			"primitives":[
				{
					"attributes":{
						"POSITION":0,
						"NORMAL":1,
						"TEXCOORD_0":2
					},
					"indices":3,
					"material":0
				}
			]
		}
	],
	"accessors":[
		{
			"bufferView":0,
			"componentType":5126,
			"count":2747,
			"max":[
				1.2391401529312134,
				0.7121286392211914,
				3.2656936645507812
			],
			"min":[
				-1.2391406297683716,
				-0.781967043876648,
				-3.0852622985839844
			],
			"type":"VEC3"
		},
		{
			"bufferView":1,
			"componentType":5126,
			"count":2747,
			"type":"VEC3"
		},
		{
			"bufferView":2,
			"componentType":5126,
			"count":2747,
			"type":"VEC2"
		},
		{
			"bufferView":3,
			"componentType":5123,
			"count":4668,
			"type":"SCALAR"
		}
	],
	"bufferViews":[
		{
			"buffer":0,
			"byteLength":32964,
			"byteOffset":0,
			"target":34962
		},
		{
			"buffer":0,
			"byteLength":32964,
			"byteOffset":32964,
			"target":34962
		},
		{
			"buffer":0,
			"byteLength":21976,
			"byteOffset":65928,
			"target":34962
		},
		{
			"buffer":0,
			"byteLength":9336,
			"byteOffset":87904,
			"target":34963
		}
	],
	"buffers":[
		{
			"byteLength":97240,
			"uri":"camaro.bin"
		}
	]
}
