{
	"asset":{
		"generator":"Khronos glTF Blender I/O v4.2.70",
		"version":"2.0"
	},
	"scene":0,
	"scenes":[
		{
			"name":"Scene",
			"nodes":[
				0
			]
		}
	],
	"nodes":[
		{
			"mesh":0,
			"name":"Cylinder.001",
			"rotation":[
				0,
				-0.7071068286895752,
				0.7071068286895752,
				1.1520233300643667e-07
			],
			"scale":[
				0.43782728910446167,
				0.6129581928253174,
				0.43782728910446167
			],
			"translation":[
				0,
				0,
				-0.16142018139362335
			]
		}
	],
	"materials":[
		{
			"doubleSided":true,
			"name":"Material.001",
			"pbrMetallicRoughness":{
				"baseColorTexture":{
					"index":0
				},
				"metallicFactor":0,
				"roughnessFactor":0.5
			}
		}
	],
	"meshes":[
		{
			"name":"Cylinder.001",
			"primitives":[
				{
					"attributes":{
						"POSITION":0,
						"NORMAL":1,
						"TEXCOORD_0":2
					},
					"indices":3,
					"material":0
				}
			]
		}
	],
	"textures":[
		{
			"sampler":0,
			"source":0
		}
	],
	"images":[
		{
			"mimeType":"image/png",
			"name":"wheel",
			"uri":"wheel.png"
		}
	],
	"accessors":[
		{
			"bufferView":0,
			"componentType":5126,
			"count":1623,
			"max":[
				0.9096623063087463,
				0.11087280511856079,
				0.9096621870994568
			],
			"min":[
				-0.9096620678901672,
				-0.5943641662597656,
				-0.9096621870994568
			],
			"type":"VEC3"
		},
		{
			"bufferView":1,
			"componentType":5126,
			"count":1623,
			"type":"VEC3"
		},
		{
			"bufferView":2,
			"componentType":5126,
			"count":1623,
			"type":"VEC2"
		},
		{
			"bufferView":3,
			"componentType":5123,
			"count":2697,
			"type":"SCALAR"
		}
	],
	"bufferViews":[
		{
			"buffer":0,
			"byteLength":19476,
			"byteOffset":0,
			"target":34962
		},
		{
			"buffer":0,
			"byteLength":19476,
			"byteOffset":19476,
			"target":34962
		},
		{
			"buffer":0,
			"byteLength":12984,
			"byteOffset":38952,
			"target":34962
		},
		{
			"buffer":0,
			"byteLength":5394,
			"byteOffset":51936,
			"target":34963
		}
	],
	"samplers":[
		{
			"magFilter":9729,
			"minFilter":9987
		}
	],
	"buffers":[
		{
			"byteLength":57332,
			"uri":"wheel.bin"
		}
	]
}
