{
	"asset":{
		"generator":"Khronos glTF Blender I/O v4.2.70",
		"version":"2.0"
	},
	"scene":0,
	"scenes":[
		{
			"name":"Scene",
			"nodes":[
				0,
				1,
				2
			]
		}
	],
	"nodes":[
		{
			"mesh":0,
			"name":"Cylinder.001",
			"rotation":[
				0.7071068286895752,
				0,
				0,
				0.7071068286895752
			],
			"scale":[
				1.0616470575332642,
				1.0616470575332642,
				1.0616470575332642
			],
			"translation":[
				0,
				0,
				0.23760470747947693
			]
		},
		{
			"mesh":1,
			"name":"Text",
			"rotation":[
				0.7071068286895752,
				0,
				0,
				0.7071068286895752
			],
			"scale":[
				1.383523941040039,
				1.383523941040039,
				1.383523941040039
			],
			"translation":[
				0,
				0,
				0.27975937724113464
			]
		},
		{
			"mesh":2,
			"name":"Cylinder",
			"rotation":[
				0.7071068286895752,
				0,
				0,
				0.7071068286895752
			]
		}
	],
	"materials":[
		{
			"doubleSided":true,
			"name":"Material"
		},
		{
			"doubleSided":true,
			"name":"Gold"
		},
		{
			"doubleSided":true,
			"name":"Rubber"
		}
	],
	"meshes":[
		{
			"name":"Cylinder.001",
			"primitives":[
				{
					"attributes":{
						"POSITION":0,
						"NORMAL":1,
						"TEXCOORD_0":2
					},
					"indices":3,
					"material":0
				}
			]
		},
		{
			"name":"Mesh",
			"primitives":[
				{
					"attributes":{
						"POSITION":4,
						"NORMAL":5
					},
					"indices":6,
					"material":1
				}
			]
		},
		{
			"name":"Cylinder",
			"primitives":[
				{
					"attributes":{
						"POSITION":7,
						"NORMAL":8,
						"TEXCOORD_0":9
					},
					"indices":10,
					"material":2
				}
			]
		}
	],
	"accessors":[
		{
			"bufferView":0,
			"componentType":5126,
			"count":241,
			"max":[
				0.6389418840408325,
				0.10569238662719727,
				0.6397729516029358
			],
			"min":[
				-0.6156755685806274,
				-0.024575501680374146,
				-0.6148443222045898
			],
			"type":"VEC3"
		},
		{
			"bufferView":1,
			"componentType":5126,
			"count":241,
			"type":"VEC3"
		},
		{
			"bufferView":2,
			"componentType":5126,
			"count":241,
			"type":"VEC2"
		},
		{
			"bufferView":3,
			"componentType":5123,
			"count":495,
			"type":"SCALAR"
		},
		{
			"bufferView":4,
			"componentType":5126,
			"count":505,
			"max":[
				0.24829307198524475,
				0.04212060570716858,
				0.42074817419052124
			],
			"min":[
				-0.26696333289146423,
				-0.0457925945520401,
				-0.3841750919818878
			],
			"type":"VEC3"
		},
		{
			"bufferView":5,
			"componentType":5126,
			"count":505,
			"type":"VEC3"
		},
		{
			"bufferView":6,
			"componentType":5123,
			"count":1839,
			"type":"SCALAR"
		},
		{
			"bufferView":7,
			"componentType":5126,
			"count":1382,
			"max":[
				0.9657399654388428,
				0.3824847340583801,
				0.9657399654388428
			],
			"min":[
				-0.9657399654388428,
				-0.3662278354167938,
				-0.9657399654388428
			],
			"type":"VEC3"
		},
		{
			"bufferView":8,
			"componentType":5126,
			"count":1382,
			"type":"VEC3"
		},
		{
			"bufferView":9,
			"componentType":5126,
			"count":1382,
			"type":"VEC2"
		},
		{
			"bufferView":10,
			"componentType":5123,
			"count":2202,
			"type":"SCALAR"
		}
	],
	"bufferViews":[
		{
			"buffer":0,
			"byteLength":2892,
			"byteOffset":0,
			"target":34962
		},
		{
			"buffer":0,
			"byteLength":2892,
			"byteOffset":2892,
			"target":34962
		},
		{
			"buffer":0,
			"byteLength":1928,
			"byteOffset":5784,
			"target":34962
		},
		{
			"buffer":0,
			"byteLength":990,
			"byteOffset":7712,
			"target":34963
		},
		{
			"buffer":0,
			"byteLength":6060,
			"byteOffset":8704,
			"target":34962
		},
		{
			"buffer":0,
			"byteLength":6060,
			"byteOffset":14764,
			"target":34962
		},
		{
			"buffer":0,
			"byteLength":3678,
			"byteOffset":20824,
			"target":34963
		},
		{
			"buffer":0,
			"byteLength":16584,
			"byteOffset":24504,
			"target":34962
		},
		{
			"buffer":0,
			"byteLength":16584,
			"byteOffset":41088,
			"target":34962
		},
		{
			"buffer":0,
			"byteLength":11056,
			"byteOffset":57672,
			"target":34962
		},
		{
			"buffer":0,
			"byteLength":4404,
			"byteOffset":68728,
			"target":34963
		}
	],
	"buffers":[
		{
			"byteLength":73132,
			"uri":"wheel.bin"
		}
	]
}
